{
  "asset" : {
    "generator" : "threedcger from https://3dcger.com",
    "version" : "2.0"
  },
  "scene" : 0,
  "scenes" : [ {
    "nodes" : [ 0 ]
  } ],
  "nodes" : [ {
    "mesh" : 0
  } ],
  "meshes" : [ {
    "primitives" : [ {
      "indices" : 0,
      "material" : 0,
      "mode" : 4,
      "attributes" : {
        "POSITION" : 1,
        "TEXCOORD_0" : 2,
        "NORMAL" : 3
      }
    } ]
  } ],
  "accessors" : [ {
    "bufferView" : 0,
    "byteOffset" : 0,
    "componentType" : 5123,
    "count" : 6156,
    "type" : "SCALAR",
    "min" : [ 0 ],
    "max" : [ 4062 ]
  }, {
    "bufferView" : 1,
    "byteOffset" : 0,
    "componentType" : 5126,
    "count" : 4063,
    "type" : "VEC3",
    "min" : [ -27.0723, 0.433906, -64.309494 ],
    "max" : [ 25.94, 49.5578, 60.476704 ]
  }, {
    "bufferView" : 1,
    "byteOffset" : 48756,
    "componentType" : 5126,
    "count" : 4063,
    "type" : "VEC2",
    "min" : [ -7.8684, -0.0046999454 ],
    "max" : [ 6.5145, 0.9963 ]
  }, {
    "bufferView" : 1,
    "byteOffset" : 97512,
    "componentType" : 5126,
    "count" : 4063,
    "type" : "VEC3",
    "min" : [ -1.0, -1.0, -1.0 ],
    "max" : [ 1.0, 1.0, 1.0 ]
  } ],
  "bufferViews" : [ {
    "buffer" : 0,
    "byteOffset" : 0,
    "byteLength" : 12312,
    "target" : 34963
  }, {
    "buffer" : 0,
    "byteOffset" : 12312,
    "byteLength" : 146268,
    "byteStride" : 12,
    "target" : 34962
  } ],
  "buffers" : [ {
    "uri" : "tank.bin",
    "byteLength" : 158580
  } ],
  "materials" : [ {
    "pbrMetallicRoughness" : {
      "metallicFactor" : 0.6,
      "baseColorTexture" : {
        "index" : 0
      },
      "extras" : 0.2
    },
    "emissiveFactor" : [ 0.27058825, 0.27058825, 1.0 ],
    "doubleSided" : true
  } ],
  "textures" : [ {
    "sampler" : 0,
    "source" : 0
  } ],
  "images" : [ {
    "uri" : "tanke01.png"
  } ],
  "samplers" : [ { } ]
}